<svg data-v-423bf9ae="" xmlns="http://www.w3.org/2000/svg" viewBox="0 0 811 90" class="iconLeftSlogan"><!----><!----><!----><g data-v-423bf9ae="" id="b4842519-f785-4812-882a-1e0632e53604" fill="white" transform="matrix(6.1224488604322,0,0,6.1224488604322,264.3619284937403,-21.428570534675544)"><path d="M3.99 12.96C3.99 13.15 4.14 13.30 4.33 13.30C4.51 13.30 4.66 13.15 4.66 12.96L4.66 4.19L7.62 4.19C7.80 4.19 7.95 4.03 7.95 3.84C7.95 3.65 7.80 3.50 7.62 3.50L1.04 3.50C0.85 3.50 0.70 3.65 0.70 3.84C0.70 4.03 0.85 4.19 1.04 4.19L3.99 4.19L3.99 12.96ZM8.97 12.96C8.97 13.16 9.13 13.30 9.32 13.30C9.49 13.30 9.65 13.16 9.65 12.96L9.65 9.95C9.65 9.93 9.65 9.90 9.67 9.84C9.77 9.56 10.04 8.86 10.50 8.25C10.98 7.63 11.59 7.13 12.49 7.13C12.67 7.13 12.82 6.97 12.82 6.79C12.82 6.59 12.67 6.45 12.49 6.45C11.17 6.45 10.26 7.32 9.74 8.13C9.70 8.19 9.67 8.25 9.65 8.30L9.65 6.79C9.65 6.59 9.49 6.45 9.32 6.45C9.13 6.45 8.97 6.59 8.97 6.79L8.97 12.96ZM20.19 6.44C20.01 6.44 19.85 6.58 19.85 6.78L19.85 7.78C19.26 6.97 18.33 6.44 17.28 6.44C15.47 6.44 14.03 7.99 14.03 9.87C14.03 11.75 15.47 13.30 17.28 13.30C18.33 13.30 19.26 12.75 19.85 11.94L19.85 12.96C19.85 13.15 20.01 13.30 20.19 13.30C20.37 13.30 20.52 13.15 20.52 12.96L20.52 6.78C20.52 6.58 20.37 6.44 20.19 6.44ZM17.28 12.63C15.88 12.63 14.70 11.41 14.70 9.87C14.70 8.33 15.88 7.10 17.28 7.10C18.69 7.10 19.85 8.33 19.85 9.87C19.85 11.41 18.69 12.63 17.28 12.63ZM25.42 13.27C25.44 13.29 25.44 13.29 25.45 13.29C25.49 13.30 25.52 13.30 25.56 13.30C25.63 13.30 25.73 13.27 25.79 13.20C25.83 13.15 25.86 13.09 25.87 13.03L28.43 6.96C28.50 6.79 28.43 6.59 28.27 6.52C28.10 6.45 27.89 6.54 27.83 6.71L25.55 12.11L23.27 6.71C23.21 6.54 23.00 6.45 22.83 6.52C22.68 6.59 22.60 6.79 22.67 6.96L25.24 13.09C25.27 13.16 25.31 13.20 25.35 13.24C25.38 13.26 25.40 13.27 25.42 13.27ZM33.73 13.30C34.89 13.30 35.91 12.68 36.50 11.75C36.60 11.58 36.54 11.38 36.39 11.27C36.25 11.19 36.04 11.21 35.94 11.38C35.48 12.15 34.64 12.63 33.73 12.63C32.31 12.63 31.14 11.49 31.07 10.00L36.69 10.00C36.88 10.00 37.03 9.87 37.03 9.69L37.03 9.65L37.03 9.63C36.89 7.84 35.49 6.44 33.73 6.44C31.88 6.44 30.39 7.98 30.39 9.88C30.39 11.76 31.88 13.30 33.73 13.30ZM33.73 7.11C34.99 7.11 36.08 8.05 36.30 9.34L31.11 9.34C31.36 8.04 32.44 7.11 33.73 7.11ZM39.51 12.96L39.51 12.96C39.51 13.15 39.66 13.30 39.84 13.30L39.84 13.30C40.04 13.30 40.19 13.15 40.19 12.96L40.19 3.84L40.19 3.84C40.19 3.65 40.04 3.50 39.84 3.50L39.84 3.50C39.66 3.50 39.51 3.65 39.51 3.84L39.51 12.96ZM46.48 10.09C46.48 11.86 47.92 13.30 49.69 13.30C51.45 13.30 52.89 11.86 52.89 10.09C52.89 9.87 52.86 9.65 52.82 9.44C52.96 9.38 53.09 9.31 53.23 9.21C53.52 9.00 53.73 8.62 53.70 8.16C53.70 8.01 53.69 7.84 53.66 7.64C53.61 7.48 53.44 7.35 53.24 7.39C53.06 7.43 52.93 7.62 52.99 7.80C53.02 7.94 53.02 8.06 53.02 8.16C53.02 8.46 52.93 8.57 52.82 8.68C52.72 8.75 52.58 8.81 52.43 8.83L52.33 8.83L52.29 8.83L52.21 8.83C52.05 8.81 51.87 8.81 51.72 8.81C50.71 8.81 50.06 9.06 49.67 9.45C49.27 9.83 49.18 10.30 49.18 10.64C49.18 10.92 49.24 11.13 49.25 11.14C49.29 11.30 49.42 11.38 49.59 11.38C49.62 11.38 49.64 11.38 49.69 11.37C49.85 11.31 49.95 11.13 49.91 10.93C49.90 10.88 49.87 10.78 49.87 10.64C49.87 10.42 49.92 10.15 50.15 9.93C50.37 9.70 50.82 9.49 51.72 9.49C51.84 9.49 51.98 9.49 52.14 9.52C52.18 9.70 52.21 9.90 52.21 10.09C52.21 11.48 51.07 12.61 49.69 12.61C48.30 12.61 47.17 11.48 47.17 10.09C47.17 9.11 47.71 8.29 48.52 7.85C48.57 7.84 48.59 7.83 48.64 7.80C48.69 7.76 48.75 7.70 48.76 7.63C48.83 7.49 48.78 7.32 48.65 7.22C48.23 6.93 47.94 6.43 47.94 5.87C47.94 4.93 48.69 4.19 49.62 4.19C50.54 4.19 51.30 4.93 51.30 5.87C51.30 6.05 51.45 6.20 51.63 6.20C51.83 6.20 51.98 6.05 51.98 5.87C51.98 4.55 50.92 3.50 49.62 3.50C48.31 3.50 47.25 4.55 47.25 5.87C47.25 6.47 47.47 7.03 47.87 7.45C47.03 8.04 46.48 9.02 46.48 10.09ZM63.73 12.96C63.73 13.15 63.88 13.30 64.06 13.30C64.25 13.30 64.40 13.15 64.40 12.96L64.40 4.19L67.35 4.19C67.54 4.19 67.69 4.03 67.69 3.84C67.69 3.65 67.54 3.50 67.35 3.50L60.77 3.50C60.59 3.50 60.44 3.65 60.44 3.84C60.44 4.03 60.59 4.19 60.77 4.19L63.73 4.19L63.73 12.96ZM67.90 9.87L67.90 9.87C67.90 11.73 69.36 13.30 71.15 13.30L71.15 13.30C72.95 13.30 74.40 11.73 74.40 9.87L74.40 9.87C74.40 8.01 72.95 6.44 71.15 6.44L71.15 6.44C69.36 6.44 67.90 8.01 67.90 9.87ZM68.57 9.87L68.57 9.87C68.57 8.34 69.75 7.10 71.15 7.10L71.15 7.10C72.55 7.10 73.72 8.34 73.72 9.87L73.72 9.87C73.72 11.40 72.55 12.63 71.15 12.63L71.15 12.63C69.75 12.63 68.57 11.40 68.57 9.87ZM76.61 10.50L76.61 10.50C76.61 12.04 77.84 13.30 79.38 13.30L79.38 13.30C80.95 13.30 82.19 12.04 82.19 10.50L82.19 6.76L82.19 6.76C82.19 6.57 82.04 6.43 81.84 6.43L81.84 6.43C81.68 6.43 81.51 6.57 81.51 6.76L81.51 6.76L81.51 10.50L81.51 10.50C81.51 11.68 80.56 12.61 79.38 12.63L79.38 12.63C78.22 12.61 77.28 11.68 77.28 10.50L77.28 6.76L77.28 6.76C77.28 6.57 77.13 6.43 76.94 6.43L76.94 6.43C76.76 6.43 76.61 6.57 76.61 6.76L76.61 10.50ZM85.33 12.96C85.33 13.16 85.48 13.30 85.68 13.30C85.85 13.30 86.00 13.16 86.00 12.96L86.00 9.95C86.00 9.93 86.00 9.90 86.03 9.84C86.13 9.56 86.39 8.86 86.86 8.25C87.33 7.63 87.95 7.13 88.84 7.13C89.03 7.13 89.18 6.97 89.18 6.79C89.18 6.59 89.03 6.45 88.84 6.45C87.53 6.45 86.62 7.32 86.10 8.13C86.06 8.19 86.03 8.25 86.00 8.30L86.00 6.79C86.00 6.59 85.85 6.45 85.68 6.45C85.48 6.45 85.33 6.59 85.33 6.79L85.33 12.96Z"></path></g><!----><g data-v-423bf9ae="" id="57ac853c-69d9-45da-bba8-c98e377ba63f" transform="matrix(2.9702858859374546,0,0,2.9702858859374546,-28.655196865782727,-117.02310011142427)" stroke="none" fill="white"><style>.st0{fill:none}</style><path class="st0" d="M81.9 61.8l2-2.9-5.5-.6c-.2 0-.3-.1-.4-.1 1.5 1.2 2.8 2.4 3.9 3.6zM60.8 50.3c0-.1-.1-.1-.2-.1-10.9-3.1-27.4-7.7-40.2-8.5-.2 0-.9 0-1.9.2l6.7 2.1c1 .3 1.6 1.4 1.3 2.5l-.1.3c-.3 1-1.4 1.6-2.5 1.3l-9.6-3c-.5-.2-.9-.5-1.1-.9-.6.6-1.1 1.2-1.5 2.1-.2.5-.2 1 .1 1.5 1.5 3 9.3 5.6 12.2 6.3.1 0 4 1.4 9.8 3l.1-.6c0-.2.1-.3.1-.5l-1.3-.3c-.7-.2-1.4-.6-1.8-1.3-.4-.6-.5-1.4-.4-2.2V52c.3-1.5 1.9-2.5 3.4-2.2L55 54.3c1.5.3 2.5 1.9 2.2 3.4v.2c-.2.7-.6 1.4-1.3 1.8-.5.3-1 .5-1.5.5-.2 0-.4 0-.6-.1l-8.3-1.8v.2l-.2 1.1c3.8.8 7.7 1.4 11.7 1.8 11.4 1.2 19.2 1.2 22.8 1.1-6.6-6.7-18.8-12.1-19-12.2zM89.2 47.3l-3.2-.2c-.8-.1-2 .9-3.4 2-2.5 2-5.9 4.8-10.6 4-.7-.1-1.5-.3-2.4-.5 2.2 1.2 4.5 2.7 6.7 4.4-.3-.5-.5-1.1-.4-1.8.2-1.6 1.6-2.7 3.2-2.5l7.5.9c.3 0 .7.1 1 .3l3.8-5.3s.1-.3.1-.5c-.1-.2-.4-.7-2.3-.8z"></path><path d="M93.3 47.1c-.5-1.1-1.8-1.7-4-1.8l-3-.2c-1.6-.2-3.1 1-4.9 2.4-2.4 2-5.2 4.2-9 3.6-2.2-.4-6.2-1.5-11.2-2.9-11-3.1-27.6-7.8-40.6-8.6-.3 0-8.1-.1-10.5 5.7-.4 1-.4 2.1.1 3.1 2.2 4.3 12.4 7.1 13.4 7.3.1 0 4 1.4 10 3v.2c-.2 1 0 2.1.6 3s1.5 1.5 2.6 1.7l3.5.7c.3 0 .5.1.8.1.8 0 1.6-.2 2.2-.7.8-.5 1.4-1.4 1.6-2.3 3.8.8 7.9 1.4 11.9 1.9 8.8.9 15.3 1.1 19.6 1.1 3.7 0 5.7-.2 5.8-.2h.5l3.6-5.1h.1c1.4 0 2.7-1.1 2.8-2.5.1-.5 0-.9-.2-1.4l4.1-5.7s.8-1.2.2-2.4zm-51.2 15c-.4.3-1 .4-1.5.3l-3.6-.7c-.5-.1-1-.4-1.3-.8-.3-.4-.4-1-.3-1.5l.5-2.7c0-.2.1-.3.1-.4l7.3 1.6v.3l-.5 2.7c0 .5-.3.9-.7 1.2zm-8.8-8.6c-.2 0-.4-.2-.5-.4-.1-.2-.2-.4-.1-.6v-.2c0-.2.2-.4.4-.5.2-.1.4-.2.6-.1l20.9 4.6c.5.1.8.6.7 1v.2c-.1.5-.6.8-1 .7l-21-4.7zm27.8-3.2c.1.1 12.1 5.5 18.6 12.1-3.6.1-11.4.1-22.8-1.1-4-.4-7.9-1.1-11.7-1.8l.2-1.1v-.2l8.3 1.8c.2 0 .4.1.6.1.5 0 1.1-.2 1.5-.5.6-.4 1.1-1 1.3-1.8v-.2c.3-1.5-.6-3.1-2.2-3.4L34 49.6c-1.5-.3-3.1.6-3.4 2.2v.2c-.2.7 0 1.5.4 2.2.4.6 1 1.1 1.8 1.3l1.3.3c-.1.2-.1.3-.1.5l-.1.6c-5.8-1.6-9.6-2.9-9.8-3-2.9-.8-10.7-3.3-12.2-6.3-.3-.5-.2-.8-.1-1.5.2-.7 1.1-1.8 1-1.8-.1 0 1.1.4 1.6.6l9.6 3c1 .3 2.1-.3 2.5-1.3l.1-.3c.3-1-.3-2.1-1.3-2.5l-6.7-2.1c1-.1 1.7-.2 1.9-.2 12.8.8 29.3 5.5 40.2 8.5m25.5 7.2l-7.5-.9c-.5-.1-.8-.5-.8-1 .1-.5.5-.8 1-.8l7.5.9c.5.1.8.5.8 1-.1.5-.5.9-1 .8zm-7.7 1.1l5.5.6-2 2.9c-1.1-1.3-2.4-2.5-3.9-3.6.1.1.2.1.4.1zm12.9-9.8l-3.8 5.3c-.3-.1-.6-.3-1-.3l-7.5-.9c-1.6-.2-3 .9-3.2 2.5-.1.6.1 1.3.4 1.8-2.2-1.6-4.6-3.1-6.7-4.4.9.2 1.7.4 2.4.5 4.7.8 8.2-2 10.6-4 1.3-1.1 2.6-2.1 3.4-2l3.1.2c2 .1 2.3.6 2.3.7.1.3 0 .5 0 .6z"></path><circle cx="53.2" cy="66.9" r="3"></circle><circle cx="15.4" cy="57.1" r="3"></circle><g><path class="st0" d="M81.9 61.8l2-2.9-5.5-.6c-.2 0-.3-.1-.4-.1 1.5 1.2 2.8 2.4 3.9 3.6zM60.8 50.3c0-.1-.1-.1-.2-.1-10.9-3.1-27.4-7.7-40.2-8.5-.2 0-.9 0-1.9.2l6.7 2.1c1 .3 1.6 1.4 1.3 2.5l-.1.3c-.3 1-1.4 1.6-2.5 1.3l-9.6-3c-.5-.2-.9-.5-1.1-.9-.6.6-1.1 1.2-1.5 2.1-.2.5-.2 1 .1 1.5 1.5 3 9.3 5.6 12.2 6.3.1 0 4 1.4 9.8 3l.1-.6c0-.2.1-.3.1-.5l-1.3-.3c-.7-.2-1.4-.6-1.8-1.3-.4-.6-.5-1.4-.4-2.2V52c.3-1.5 1.9-2.5 3.4-2.2L55 54.3c1.5.3 2.5 1.9 2.2 3.4v.2c-.2.7-.6 1.4-1.3 1.8-.5.3-1 .5-1.5.5-.2 0-.4 0-.6-.1l-8.3-1.8v.2l-.2 1.1c3.8.8 7.7 1.4 11.7 1.8 11.4 1.2 19.2 1.2 22.8 1.1-6.6-6.7-18.8-12.1-19-12.2zM89.2 47.3l-3.2-.2c-.8-.1-2 .9-3.4 2-2.5 2-5.9 4.8-10.6 4-.7-.1-1.5-.3-2.4-.5 2.2 1.2 4.5 2.7 6.7 4.4-.3-.5-.5-1.1-.4-1.8.2-1.6 1.6-2.7 3.2-2.5l7.5.9c.3 0 .7.1 1 .3l3.8-5.3s.1-.3.1-.5c-.1-.2-.4-.7-2.3-.8z"></path><path d="M93.3 47.1c-.5-1.1-1.8-1.7-4-1.8l-3-.2c-1.6-.2-3.1 1-4.9 2.4-2.4 2-5.2 4.2-9 3.6-2.2-.4-6.2-1.5-11.2-2.9-11-3.1-27.6-7.8-40.6-8.6-.3 0-8.1-.1-10.5 5.7-.4 1-.4 2.1.1 3.1 2.2 4.3 12.4 7.1 13.4 7.3.1 0 4 1.4 10 3v.2c-.2 1 0 2.1.6 3s1.5 1.5 2.6 1.7l3.5.7c.3 0 .5.1.8.1.8 0 1.6-.2 2.2-.7.8-.5 1.4-1.4 1.6-2.3 3.8.8 7.9 1.4 11.9 1.9 8.8.9 15.3 1.1 19.6 1.1 3.7 0 5.7-.2 5.8-.2h.5l3.6-5.1h.1c1.4 0 2.7-1.1 2.8-2.5.1-.5 0-.9-.2-1.4l4.1-5.7s.8-1.2.2-2.4zm-51.2 15c-.4.3-1 .4-1.5.3l-3.6-.7c-.5-.1-1-.4-1.3-.8-.3-.4-.4-1-.3-1.5l.5-2.7c0-.2.1-.3.1-.4l7.3 1.6v.3l-.5 2.7c0 .5-.3.9-.7 1.2zm-8.8-8.6c-.2 0-.4-.2-.5-.4-.1-.2-.2-.4-.1-.6v-.2c0-.2.2-.4.4-.5.2-.1.4-.2.6-.1l20.9 4.6c.5.1.8.6.7 1v.2c-.1.5-.6.8-1 .7l-21-4.7zm27.8-3.2c.1.1 12.1 5.5 18.6 12.1-3.6.1-11.4.1-22.8-1.1-4-.4-7.9-1.1-11.7-1.8l.2-1.1v-.2l8.3 1.8c.2 0 .4.1.6.1.5 0 1.1-.2 1.5-.5.6-.4 1.1-1 1.3-1.8v-.2c.3-1.5-.6-3.1-2.2-3.4L34 49.6c-1.5-.3-3.1.6-3.4 2.2v.2c-.2.7 0 1.5.4 2.2.4.6 1 1.1 1.8 1.3l1.3.3c-.1.2-.1.3-.1.5l-.1.6c-5.8-1.6-9.6-2.9-9.8-3-2.9-.8-10.7-3.3-12.2-6.3-.3-.5-.2-.8-.1-1.5.2-.7 1.1-1.8 1-1.8-.1 0 1.1.4 1.6.6l9.6 3c1 .3 2.1-.3 2.5-1.3l.1-.3c.3-1-.3-2.1-1.3-2.5l-6.7-2.1c1-.1 1.7-.2 1.9-.2 12.8.8 29.3 5.5 40.2 8.5m25.5 7.2l-7.5-.9c-.5-.1-.8-.5-.8-1 .1-.5.5-.8 1-.8l7.5.9c.5.1.8.5.8 1-.1.5-.5.9-1 .8zm-7.7 1.1l5.5.6-2 2.9c-1.1-1.3-2.4-2.5-3.9-3.6.1.1.2.1.4.1zm12.9-9.8l-3.8 5.3c-.3-.1-.6-.3-1-.3l-7.5-.9c-1.6-.2-3 .9-3.2 2.5-.1.6.1 1.3.4 1.8-2.2-1.6-4.6-3.1-6.7-4.4.9.2 1.7.4 2.4.5 4.7.8 8.2-2 10.6-4 1.3-1.1 2.6-2.1 3.4-2l3.1.2c2 .1 2.3.6 2.3.7.1.3 0 .5 0 .6z"></path><circle cx="53.2" cy="66.9" r="3"></circle><circle cx="15.4" cy="57.1" r="3"></circle></g></g><!----><g data-v-423bf9ae="" id="4965c673-9db6-4fc2-bbab-9aeecff722d6" fill="white" transform="matrix(2.8614819763057526,0,0,2.8614819763057526,266.6445985363101,50.385418045713344)"><path d="M3.99 12.96C3.99 13.15 4.14 13.30 4.33 13.30C4.51 13.30 4.66 13.15 4.66 12.96L4.66 4.19L7.62 4.19C7.80 4.19 7.95 4.03 7.95 3.84C7.95 3.65 7.80 3.50 7.62 3.50L1.04 3.50C0.85 3.50 0.70 3.65 0.70 3.84C0.70 4.03 0.85 4.19 1.04 4.19L3.99 4.19L3.99 12.96ZM9.32 8.33L9.32 8.33C9.34 11.07 11.41 13.30 14.06 13.30L14.06 13.30C16.67 13.30 18.73 11.07 18.75 8.33L18.75 8.33C18.73 5.59 16.67 3.36 14.06 3.36L14.06 3.36C11.41 3.36 9.34 5.59 9.32 8.33ZM10.01 8.33L10.01 8.33C10.01 5.91 11.83 4.06 14.06 4.06L14.06 4.06C16.21 4.06 18.03 5.91 18.05 8.33L18.05 8.33C18.03 10.72 16.21 12.61 14.06 12.61L14.06 12.61C11.83 12.61 10.01 10.72 10.01 8.33ZM28.39 12.96C28.39 13.15 28.55 13.30 28.73 13.30C28.91 13.30 29.06 13.15 29.06 12.96L29.06 4.19L32.02 4.19C32.20 4.19 32.35 4.03 32.35 3.84C32.35 3.65 32.20 3.50 32.02 3.50L25.44 3.50C25.26 3.50 25.10 3.65 25.10 3.84C25.10 4.03 25.26 4.19 25.44 4.19L28.39 4.19L28.39 12.96ZM40.07 12.70C40.22 13.01 40.52 13.15 40.70 13.15L40.73 13.15C40.81 13.15 40.88 13.13 40.89 13.13C41.08 13.06 41.16 12.87 41.12 12.68C41.06 12.53 40.89 12.45 40.74 12.46C40.73 12.45 40.66 12.39 40.60 12.22C40.53 12.01 40.47 11.66 40.47 11.09C40.47 9.98 39.80 9.27 39.16 8.90C39.10 8.88 39.06 8.86 39.02 8.83C39.97 8.39 40.63 7.42 40.63 6.30C40.63 4.75 39.38 3.50 37.84 3.50L35.11 3.50L35.07 3.50L35.04 3.50C34.87 3.51 34.73 3.67 34.73 3.84L34.73 12.96C34.73 13.15 34.89 13.30 35.07 13.30C35.27 13.30 35.42 13.15 35.42 12.96L35.42 9.09L37.80 9.09C37.81 9.09 37.83 9.10 37.87 9.11C38.05 9.14 38.57 9.30 39.00 9.60C39.44 9.93 39.80 10.37 39.80 11.09C39.80 11.91 39.90 12.38 40.07 12.70ZM39.96 6.30C39.96 7.45 39.03 8.39 37.90 8.41L37.77 8.41L35.42 8.41L35.42 4.19L37.84 4.19C39.00 4.19 39.96 5.12 39.96 6.30ZM49.91 13.08C49.97 13.22 50.11 13.30 50.23 13.30C50.27 13.30 50.30 13.29 50.36 13.29C50.53 13.22 50.61 13.01 50.54 12.84L47.14 3.75C47.10 3.63 46.96 3.54 46.80 3.54C46.66 3.54 46.52 3.63 46.47 3.75L43.06 12.84C42.99 13.01 43.09 13.22 43.26 13.29C43.30 13.29 43.36 13.30 43.39 13.30C43.53 13.30 43.65 13.22 43.71 13.08L44.58 10.77L49.04 10.77ZM46.82 4.82L48.79 10.08L44.83 10.08ZM54.85 13.27C54.85 13.27 54.85 13.29 54.87 13.29C54.89 13.30 54.95 13.30 54.99 13.30C55.03 13.30 55.08 13.29 55.12 13.27L55.13 13.27C55.24 13.23 55.31 13.12 55.33 12.99L59.12 4.03C59.19 3.86 59.11 3.65 58.94 3.58C58.77 3.50 58.56 3.58 58.51 3.75L54.99 12.10L51.49 3.75C51.42 3.58 51.21 3.50 51.04 3.58C50.88 3.65 50.79 3.86 50.86 4.03L54.66 13.06L54.67 13.08C54.67 13.09 54.67 13.10 54.68 13.10C54.71 13.19 54.77 13.24 54.85 13.27ZM61.54 12.96C61.54 13.15 61.68 13.29 61.85 13.30L61.88 13.30L61.92 13.30L66.92 13.30C67.12 13.30 67.26 13.15 67.26 12.96C67.26 12.77 67.12 12.61 66.92 12.61L62.23 12.61L62.23 8.75L66.33 8.75C66.51 8.75 66.67 8.60 66.67 8.41C66.67 8.22 66.51 8.06 66.33 8.06L62.23 8.06L62.23 4.19L66.92 4.19C67.12 4.19 67.26 4.03 67.26 3.84C67.26 3.65 67.12 3.50 66.92 3.50L61.91 3.50L61.88 3.50C61.70 3.50 61.54 3.65 61.54 3.84L61.54 12.96ZM75.22 13.30C75.42 13.30 75.57 13.15 75.57 12.96C75.57 12.77 75.42 12.61 75.22 12.61L70.53 12.61L70.53 3.84C70.53 3.65 70.38 3.50 70.18 3.50C70 3.50 69.85 3.65 69.85 3.84L69.85 12.96C69.85 13.15 70 13.30 70.18 13.30L70.21 13.30ZM82.03 12.96L82.03 12.96C82.03 13.15 82.18 13.30 82.36 13.30L82.36 13.30C82.56 13.30 82.71 13.15 82.71 12.96L82.71 3.84L82.71 3.84C82.71 3.65 82.56 3.50 82.36 3.50L82.36 3.50C82.18 3.50 82.03 3.65 82.03 3.84L82.03 12.96ZM85.79 11.90L85.79 11.90C86.60 12.54 87.91 13.30 89.40 13.31L89.40 13.31C90.38 13.31 91.27 13.02 91.92 12.54L91.92 12.54C92.58 12.07 93.03 11.37 93.03 10.58L93.03 10.58C93.03 9.80 92.60 9.16 91.95 8.74L91.95 8.74C91.31 8.30 90.44 8.02 89.46 7.84L89.43 7.84L89.43 7.84C88.55 7.67 87.82 7.43 87.33 7.10L87.33 7.10C86.84 6.76 86.62 6.40 86.60 5.91L86.60 5.91C86.60 5.40 86.88 4.93 87.37 4.56L87.37 4.56C87.86 4.21 88.58 3.98 89.38 3.98L89.38 3.98C90.45 3.98 91.29 4.51 92.06 5.01L92.06 5.01C92.20 5.11 92.40 5.07 92.48 4.93L92.48 4.93C92.58 4.77 92.54 4.59 92.40 4.49L92.40 4.49C91.63 3.99 90.66 3.36 89.38 3.36L89.38 3.36C88.45 3.36 87.63 3.63 87.01 4.07L87.01 4.07C86.39 4.52 85.99 5.17 85.99 5.91L85.99 5.91C85.99 6.64 86.39 7.22 87.00 7.62L87.00 7.62C87.60 8.02 88.40 8.27 89.31 8.44L89.33 8.44L89.33 8.44C90.29 8.62 91.07 8.89 91.60 9.24L91.60 9.24C92.13 9.60 92.40 10.02 92.40 10.58L92.40 10.58C92.40 11.13 92.11 11.65 91.56 12.04L91.56 12.04C91.03 12.43 90.26 12.68 89.40 12.68L89.40 12.68C88.13 12.70 86.91 12.01 86.18 11.42L86.18 11.42C86.06 11.31 85.86 11.33 85.75 11.47L85.75 11.47C85.65 11.59 85.67 11.79 85.79 11.90ZM102.27 12.96C102.27 13.15 102.42 13.30 102.61 13.30C102.79 13.30 102.94 13.15 102.94 12.96L102.94 4.19L105.90 4.19C106.08 4.19 106.23 4.03 106.23 3.84C106.23 3.65 106.08 3.50 105.90 3.50L99.32 3.50C99.13 3.50 98.98 3.65 98.98 3.84C98.98 4.03 99.13 4.19 99.32 4.19L102.27 4.19L102.27 12.96ZM107.60 8.33L107.60 8.33C107.62 11.07 109.69 13.30 112.34 13.30L112.34 13.30C114.95 13.30 117.01 11.07 117.03 8.33L117.03 8.33C117.01 5.59 114.95 3.36 112.34 3.36L112.34 3.36C109.69 3.36 107.62 5.59 107.60 8.33ZM108.29 8.33L108.29 8.33C108.29 5.91 110.11 4.06 112.34 4.06L112.34 4.06C114.49 4.06 116.31 5.91 116.33 8.33L116.33 8.33C116.31 10.72 114.49 12.61 112.34 12.61L112.34 12.61C110.11 12.61 108.29 10.72 108.29 8.33ZM129.51 13.30C129.71 13.30 129.86 13.15 129.86 12.96C129.86 12.77 129.71 12.61 129.51 12.61L124.82 12.61L124.82 3.84C124.82 3.65 124.67 3.50 124.47 3.50C124.29 3.50 124.14 3.65 124.14 3.84L124.14 12.96C124.14 13.15 124.29 13.30 124.47 13.30L124.50 13.30ZM132.19 12.96L132.19 12.96C132.19 13.15 132.34 13.30 132.52 13.30L132.52 13.30C132.72 13.30 132.87 13.15 132.87 12.96L132.87 3.84L132.87 3.84C132.87 3.65 132.72 3.50 132.52 3.50L132.52 3.50C132.34 3.50 132.19 3.65 132.19 3.84L132.19 12.96ZM139.75 13.27C139.75 13.27 139.75 13.29 139.76 13.29C139.79 13.30 139.85 13.30 139.89 13.30C139.93 13.30 139.97 13.29 140.01 13.27L140.03 13.27C140.14 13.23 140.21 13.12 140.22 12.99L144.02 4.03C144.09 3.86 144.00 3.65 143.84 3.58C143.67 3.50 143.46 3.58 143.40 3.75L139.89 12.10L136.39 3.75C136.32 3.58 136.11 3.50 135.94 3.58C135.77 3.65 135.69 3.86 135.76 4.03L139.55 13.06L139.57 13.08C139.57 13.09 139.57 13.10 139.58 13.10C139.61 13.19 139.66 13.24 139.75 13.27ZM146.44 12.96C146.44 13.15 146.58 13.29 146.75 13.30L146.78 13.30L146.82 13.30L151.82 13.30C152.01 13.30 152.15 13.15 152.15 12.96C152.15 12.77 152.01 12.61 151.82 12.61L147.13 12.61L147.13 8.75L151.23 8.75C151.41 8.75 151.56 8.60 151.56 8.41C151.56 8.22 151.41 8.06 151.23 8.06L147.13 8.06L147.13 4.19L151.82 4.19C152.01 4.19 152.15 4.03 152.15 3.84C152.15 3.65 152.01 3.50 151.82 3.50L146.80 3.50L146.78 3.50C146.59 3.50 146.44 3.65 146.44 3.84L146.44 12.96Z"></path></g></svg>