<svg data-v-423bf9ae="" xmlns="http://www.w3.org/2000/svg" viewBox="0 0 541.7142957236953 60" class="font"><!----><!----><!----><g data-v-423bf9ae="" id="405b5dd9-8b33-449c-8976-36a086b7eaa3" fill="black" transform="matrix(6.1224488604322,0,0,6.1224488604322,-4.285715549228428,-21.428570534675544)"><path d="M3.99 12.96C3.99 13.15 4.14 13.30 4.33 13.30C4.51 13.30 4.66 13.15 4.66 12.96L4.66 4.19L7.62 4.19C7.80 4.19 7.95 4.03 7.95 3.84C7.95 3.65 7.80 3.50 7.62 3.50L1.04 3.50C0.85 3.50 0.70 3.65 0.70 3.84C0.70 4.03 0.85 4.19 1.04 4.19L3.99 4.19L3.99 12.96ZM8.97 12.96C8.97 13.16 9.13 13.30 9.32 13.30C9.49 13.30 9.65 13.16 9.65 12.96L9.65 9.95C9.65 9.93 9.65 9.90 9.67 9.84C9.77 9.56 10.04 8.86 10.50 8.25C10.98 7.63 11.59 7.13 12.49 7.13C12.67 7.13 12.82 6.97 12.82 6.79C12.82 6.59 12.67 6.45 12.49 6.45C11.17 6.45 10.26 7.32 9.74 8.13C9.70 8.19 9.67 8.25 9.65 8.30L9.65 6.79C9.65 6.59 9.49 6.45 9.32 6.45C9.13 6.45 8.97 6.59 8.97 6.79L8.97 12.96ZM20.19 6.44C20.01 6.44 19.85 6.58 19.85 6.78L19.85 7.78C19.26 6.97 18.33 6.44 17.28 6.44C15.47 6.44 14.03 7.99 14.03 9.87C14.03 11.75 15.47 13.30 17.28 13.30C18.33 13.30 19.26 12.75 19.85 11.94L19.85 12.96C19.85 13.15 20.01 13.30 20.19 13.30C20.37 13.30 20.52 13.15 20.52 12.96L20.52 6.78C20.52 6.58 20.37 6.44 20.19 6.44ZM17.28 12.63C15.88 12.63 14.70 11.41 14.70 9.87C14.70 8.33 15.88 7.10 17.28 7.10C18.69 7.10 19.85 8.33 19.85 9.87C19.85 11.41 18.69 12.63 17.28 12.63ZM25.42 13.27C25.44 13.29 25.44 13.29 25.45 13.29C25.49 13.30 25.52 13.30 25.56 13.30C25.63 13.30 25.73 13.27 25.79 13.20C25.83 13.15 25.86 13.09 25.87 13.03L28.43 6.96C28.50 6.79 28.43 6.59 28.27 6.52C28.10 6.45 27.89 6.54 27.83 6.71L25.55 12.11L23.27 6.71C23.21 6.54 23.00 6.45 22.83 6.52C22.68 6.59 22.60 6.79 22.67 6.96L25.24 13.09C25.27 13.16 25.31 13.20 25.35 13.24C25.38 13.26 25.40 13.27 25.42 13.27ZM33.73 13.30C34.89 13.30 35.91 12.68 36.50 11.75C36.60 11.58 36.54 11.38 36.39 11.27C36.25 11.19 36.04 11.21 35.94 11.38C35.48 12.15 34.64 12.63 33.73 12.63C32.31 12.63 31.14 11.49 31.07 10.00L36.69 10.00C36.88 10.00 37.03 9.87 37.03 9.69L37.03 9.65L37.03 9.63C36.89 7.84 35.49 6.44 33.73 6.44C31.88 6.44 30.39 7.98 30.39 9.88C30.39 11.76 31.88 13.30 33.73 13.30ZM33.73 7.11C34.99 7.11 36.08 8.05 36.30 9.34L31.11 9.34C31.36 8.04 32.44 7.11 33.73 7.11ZM39.51 12.96L39.51 12.96C39.51 13.15 39.66 13.30 39.84 13.30L39.84 13.30C40.04 13.30 40.19 13.15 40.19 12.96L40.19 3.84L40.19 3.84C40.19 3.65 40.04 3.50 39.84 3.50L39.84 3.50C39.66 3.50 39.51 3.65 39.51 3.84L39.51 12.96ZM46.48 10.09C46.48 11.86 47.92 13.30 49.69 13.30C51.45 13.30 52.89 11.86 52.89 10.09C52.89 9.87 52.86 9.65 52.82 9.44C52.96 9.38 53.09 9.31 53.23 9.21C53.52 9.00 53.73 8.62 53.70 8.16C53.70 8.01 53.69 7.84 53.66 7.64C53.61 7.48 53.44 7.35 53.24 7.39C53.06 7.43 52.93 7.62 52.99 7.80C53.02 7.94 53.02 8.06 53.02 8.16C53.02 8.46 52.93 8.57 52.82 8.68C52.72 8.75 52.58 8.81 52.43 8.83L52.33 8.83L52.29 8.83L52.21 8.83C52.05 8.81 51.87 8.81 51.72 8.81C50.71 8.81 50.06 9.06 49.67 9.45C49.27 9.83 49.18 10.30 49.18 10.64C49.18 10.92 49.24 11.13 49.25 11.14C49.29 11.30 49.42 11.38 49.59 11.38C49.62 11.38 49.64 11.38 49.69 11.37C49.85 11.31 49.95 11.13 49.91 10.93C49.90 10.88 49.87 10.78 49.87 10.64C49.87 10.42 49.92 10.15 50.15 9.93C50.37 9.70 50.82 9.49 51.72 9.49C51.84 9.49 51.98 9.49 52.14 9.52C52.18 9.70 52.21 9.90 52.21 10.09C52.21 11.48 51.07 12.61 49.69 12.61C48.30 12.61 47.17 11.48 47.17 10.09C47.17 9.11 47.71 8.29 48.52 7.85C48.57 7.84 48.59 7.83 48.64 7.80C48.69 7.76 48.75 7.70 48.76 7.63C48.83 7.49 48.78 7.32 48.65 7.22C48.23 6.93 47.94 6.43 47.94 5.87C47.94 4.93 48.69 4.19 49.62 4.19C50.54 4.19 51.30 4.93 51.30 5.87C51.30 6.05 51.45 6.20 51.63 6.20C51.83 6.20 51.98 6.05 51.98 5.87C51.98 4.55 50.92 3.50 49.62 3.50C48.31 3.50 47.25 4.55 47.25 5.87C47.25 6.47 47.47 7.03 47.87 7.45C47.03 8.04 46.48 9.02 46.48 10.09ZM63.73 12.96C63.73 13.15 63.88 13.30 64.06 13.30C64.25 13.30 64.40 13.15 64.40 12.96L64.40 4.19L67.35 4.19C67.54 4.19 67.69 4.03 67.69 3.84C67.69 3.65 67.54 3.50 67.35 3.50L60.77 3.50C60.59 3.50 60.44 3.65 60.44 3.84C60.44 4.03 60.59 4.19 60.77 4.19L63.73 4.19L63.73 12.96ZM67.90 9.87L67.90 9.87C67.90 11.73 69.36 13.30 71.15 13.30L71.15 13.30C72.95 13.30 74.40 11.73 74.40 9.87L74.40 9.87C74.40 8.01 72.95 6.44 71.15 6.44L71.15 6.44C69.36 6.44 67.90 8.01 67.90 9.87ZM68.57 9.87L68.57 9.87C68.57 8.34 69.75 7.10 71.15 7.10L71.15 7.10C72.55 7.10 73.72 8.34 73.72 9.87L73.72 9.87C73.72 11.40 72.55 12.63 71.15 12.63L71.15 12.63C69.75 12.63 68.57 11.40 68.57 9.87ZM76.61 10.50L76.61 10.50C76.61 12.04 77.84 13.30 79.38 13.30L79.38 13.30C80.95 13.30 82.19 12.04 82.19 10.50L82.19 6.76L82.19 6.76C82.19 6.57 82.04 6.43 81.84 6.43L81.84 6.43C81.68 6.43 81.51 6.57 81.51 6.76L81.51 6.76L81.51 10.50L81.51 10.50C81.51 11.68 80.56 12.61 79.38 12.63L79.38 12.63C78.22 12.61 77.28 11.68 77.28 10.50L77.28 6.76L77.28 6.76C77.28 6.57 77.13 6.43 76.94 6.43L76.94 6.43C76.76 6.43 76.61 6.57 76.61 6.76L76.61 10.50ZM85.33 12.96C85.33 13.16 85.48 13.30 85.68 13.30C85.85 13.30 86.00 13.16 86.00 12.96L86.00 9.95C86.00 9.93 86.00 9.90 86.03 9.84C86.13 9.56 86.39 8.86 86.86 8.25C87.33 7.63 87.95 7.13 88.84 7.13C89.03 7.13 89.18 6.97 89.18 6.79C89.18 6.59 89.03 6.45 88.84 6.45C87.53 6.45 86.62 7.32 86.10 8.13C86.06 8.19 86.03 8.25 86.00 8.30L86.00 6.79C86.00 6.59 85.85 6.45 85.68 6.45C85.48 6.45 85.33 6.59 85.33 6.79L85.33 12.96Z"></path></g><!----><!----></svg>